<svg xmlns="http://www.w3.org/2000/svg" viewBox="1425.525 229.506 209.641 341.608">
  <defs>
    <style>
      .cls-1 {
        fill: #fff33e;
      }

      .cls-1, .cls-2, .cls-3, .cls-4 {
        stroke: #231f20;
        stroke-miterlimit: 10;
      }

      .cls-2 {
        fill: #fff;
      }

      .cls-3 {
        fill: #c49a6c;
      }

      .cls-4 {
        fill: #ef509c;
        stroke-width: 0.75px;
      }
    </style>
  </defs>
  <g id="SideBite_Logo" data-name="SideBite Logo" transform="translate(1425.505 229.499)">
    <g id="Layer_1" data-name="Layer 1" transform="translate(0.495 0.501)">
      <path id="Path_1" data-name="Path 1" class="cls-1" d="M153.978,429.92c.325,2.775-2.824,6.807-6.778,6.785s-6.242-4.279-6.785-6.785c-.706-3.064.706-5.55,2.987-9.723.876-1.6,2.344-4.279,3.333-4.025s-.042,3.53,1.666,7.061C150.32,427.294,153.667,427.258,153.978,429.92Z" transform="translate(-41.566 -122.671)"/>
      <path id="Path_2" data-name="Path 2" class="cls-2" d="M101.326,12.689c4.448,3.848,9.264,17.045,12.6,22.595,4.837,8.007,7.308,17.355,11.333,25.821,6.771,14.249,18.626,25.955,21.182,42.026,2.923,18.57,7.95,32.783,17.843,49.538a4.6,4.6,0,0,1,.89,2.535c-.106,1.921-2.535,2.9-4.413,2.485s-3.432-1.695-5.19-2.471c-21.006-9.278-30.856,21.309-20.144,34.986a8.132,8.132,0,0,0,3.7,3.022c1.412.438,2.909.2,4.307.586,3.855,1.059,4.886,5.867,6.355,9.6,4.441,11.467,17.32,14.905,28.18,12,4.731-1.278,8.4-6.4,13.592-3.064,4.236,2.711,2.612,12.653,5.839,17.475,5.084,7.6,12.1,14.517,3.043,21.5-7.435,5.733-23.611,6-32.48,7.449-21.345,3.481-41.863,10.711-62.255,17.913.381-3.389-4.06-4.78-7.223-6.037C89.1,266.934,85.969,256.195,84.246,247.2c-2.57-13.366-6.814-20.257-14.884-31.774-6.983-9.956-14.122-20.222-16.946-32.049,10.965-2.641,19.77-11.544,24.106-21.959s4.639-22.15,2.824-33.292c-.558-3.439-1.412-7.018-3.7-9.624-2.034-2.295-4.943-3.53-7.859-4.582a88.761,88.761,0,0,0-54.227-1.6C15.884,95.583-.914,79.795,3.577,63.506c1.342.967-1.313,2.93-2.443,1.673s-.544-3.191.092-4.731c-1.49-8.5,3.989-18.937,8.282-26.436,2.577-4.491,5.366-9.179,9.885-11.749a28.6,28.6,0,0,1,9.115-2.747q30.128-5.472,60.6-8.861C93.348,10.19,98.107,9.907,101.326,12.689Z" transform="translate(-0.495 -3.398)"/>
      <rect id="Rectangle_1" data-name="Rectangle 1" class="cls-3" width="169.409" height="24.55" rx="12" transform="matrix(0.387, 0.922, -0.922, 0.387, 133.732, 174.75)"/>
      <path id="Path_3" data-name="Path 3" class="cls-2" d="M71.421,210.305C79.484,221.8,83.735,228.663,86.3,242.079c1.73,8.988,4.858,19.728,14.242,23.442,3.17,1.257,7.612,2.655,7.23,6.037,20.392-7.2,40.91-14.432,62.255-17.913,8.868-1.447,25.038-1.716,32.48-7.449,9.059-6.976,2.048-13.9-3.036-21.5-3.227-4.823-1.617-14.764-5.839-17.475-5.2-3.34-8.861,1.793-13.6,3.064-10.859,2.923-23.731-.515-28.18-12-1.412-3.728-2.471-8.529-6.355-9.6-1.412-.388-2.923-.148-4.307-.586a8.161,8.161,0,0,1-3.7-3.015c-10.711-13.684-.861-44.264,20.144-34.993,1.758.777,3.312,2.062,5.19,2.471s4.307-.565,4.413-2.485a4.6,4.6,0,0,0-.89-2.535C156.461,130.794,151.426,116.573,148.5,98c-2.535-16.063-14.39-27.777-21.182-42.026-2.118-4.406-3.4-7.873-11.34-25.842,0,0-7.767-17.525-17.716-23.117C97.3,6.482,96.3,5.966,96.3,5.966a15.533,15.533,0,0,0-1.455-.706c-1.236.042-2.478.155-3.672.289Q60.78,8.91,30.6,14.39c-3.142.572-6.355,1.179-9.115,2.747-4.477,2.549-7.3,7.258-9.871,11.756-4.3,7.5-9.779,17.927-8.282,26.443-.635,1.546-1.214,3.488-.1,4.731a1.567,1.567,0,0,0,2.034.085A47.244,47.244,0,0,0,6.934,75.091a51.919,51.919,0,0,0,3.262,8.36c2.238,4.943,4.731,12.547,5.437,23.71a88.733,88.733,0,0,1,54.234,1.617c2.888,1.031,5.825,2.281,7.859,4.575,2.316,2.605,3.142,6.185,3.693,9.624,1.793,11.142,1.5,22.877-2.824,33.292" transform="translate(-1.113 -1.9)"/>
      <path id="Path_4" data-name="Path 4" class="cls-2" d="M102.653,7.914l9.49,7.612c11.262,9.031,13.31,22.227,19.283,34.8,6.771,14.256,18.626,25.963,21.182,42.033,2.923,18.57,7.95,32.783,17.843,49.531a4.611,4.611,0,0,1,.89,2.535c-.106,1.921-2.535,2.909-4.413,2.492s-3.432-1.7-5.19-2.478c-21.006-9.271-30.856,21.316-20.144,34.993a8.161,8.161,0,0,0,3.7,3.015c1.412.438,2.909.2,4.307.586,3.855,1.066,4.886,5.868,6.355,9.6,4.441,11.467,17.313,14.905,28.18,12,4.731-1.271,8.4-6.4,13.592-3.064,4.237,2.718,2.613,12.66,5.839,17.475,5.084,7.6,12.1,14.524,3.036,21.507-7.435,5.726-23.6,5.995-32.48,7.442-21.345,3.481-41.863,10.718-62.255,17.913.381-3.382-4.06-4.78-7.23-6.03-9.384-3.721-12.512-14.461-14.242-23.449-2.563-13.366-6.807-20.257-14.877-31.774C68.529,194.7,61.4,184.427,58.573,172.6c10.965-2.634,19.77-11.544,24.106-21.959s4.639-22.15,2.824-33.285c-.558-3.446-1.412-7.025-3.7-9.631-2.034-2.288-4.943-3.53-7.859-4.575a88.655,88.655,0,0,0-54.227-1.61c2.3-16.734-14.489-32.529-9.991-48.818,1.363.967-1.313,2.937-2.429,1.695s-.537-3.191.1-4.738c-1.5-8.508,3.982-18.944,8.275-26.443,2.577-4.5,5.359-9.179,9.885-11.756,2.775-1.567,5.973-2.175,9.115-2.747C52.2,5.549,84.839-6.349,100.2,5.965Z" transform="translate(-2.309 -0.501)"/>
      <path id="Path_5" data-name="Path 5" class="cls-4" d="M221.768,211.807c1.37-4.1,5.606-6.927,3.9-11.3,1.779,2.86.282.833,0,0,1.779,2.86,0,5.571-3.375,5.056-3.191-.487-5.945-3.057-9.179-3.8a14.764,14.764,0,0,0-14.291,4.356,22.6,22.6,0,0,0-4.667,7.859,14.588,14.588,0,0,1,8.106-4.5,16.948,16.948,0,0,1,5.585.162,16.475,16.475,0,0,1,5.267,1.617c1.652.862,1.6,1.243,2.966,1.751.876.325,3.432,1.278,5.034-.064a3.53,3.53,0,0,0,1.165-2.464" transform="translate(-57.417 -59.288)"/>
      <path id="Path_6" data-name="Path 6" class="cls-2" d="M126.385,345.4c.374-3.389-4.06-4.78-7.23-6.037-9.384-3.714-12.512-14.453-14.242-23.449-2.563-13.366-6.814-20.257-14.877-31.774-6.99-9.956-14.122-20.222-16.946-32.049l4.759-7.845a.035.035,0,0,1,.064,0c4.364,11.89,8.967,22.227,16.572,32.007,8.621,11.085,12.314,18.358,14.884,31.773,1.723,8.988,4.858,19.728,14.242,23.449,3.163,1.25,7.6,2.648,7.223,6.03Z" transform="translate(-21.832 -72.138)"/>
    </g>
  </g>
</svg>
